<?xml version="1.0" encoding="utf-8"?>
<svg id="master-artboard" viewBox="0 0 1400 980" version="1.1" xmlns="http://www.w3.org/2000/svg" x="0px" y="0px" style="enable-background:new 0 0 1400 980;" width="1400px" height="980px"><g transform="matrix(0.9999999999999999, 0, 0, 0.9999999999999999, 5.6588866379173055, -18.391124119775487)"><rect id="ee-background" x="0" y="0" width="1400" height="980" style="fill: rgb(0, 72, 107); fill-opacity: 0; pointer-events: none;"/><g transform="matrix(1.0208333730697632, 0, 0, 1.0208333730697632, 77.79018666690536, 72.1497829633945)"><g transform="translate(0.000000,960.000000) scale(0.100000,-0.100000)" fill="#e91e63" stroke="none">
<path d="M10300 8955 c-300 -57 -571 -111 -603 -119 -124 -35 -230 -108 -293&#10;-203 -41 -61 -170 -390 -324 -827 -89 -253 -142 -388 -167 -425 -10 -14 -27&#10;-48 -39 -76 -47 -114 -82 -120 -774 -140 -300 -8 -593 -15 -652 -15 l-107 0 6&#10;129 c11 244 -40 419 -172 591 -184 239 -459 347 -810 319 -520 -41 -999 -358&#10;-1465 -969 l-89 -117 -258 -7 c-142 -3 -431 -8 -643 -11 -531 -8 -804 -21&#10;-862 -40 -96 -33 -164 -120 -188 -242 -20 -102 3 -417 95 -1289 85 -812 110&#10;-1003 145 -1146 36 -145 102 -237 205 -284 72 -33 207 -46 1570 -149 2066&#10;-156 2503 -208 2810 -338 55 -24 132 -63 170 -89 153 -99 554 -485 612 -588&#10;73 -129 91 -251 51 -338 -31 -65 -101 -133 -178 -170 -137 -67 75 -62 -2727&#10;-62 l-2542 0 -12 -22 c-17 -32 -24 -170 -10 -196 l12 -22 2573 0 c2547 0 2574&#10;0 2652 20 100 26 202 74 281 134 58 44 137 136 168 196 47 90 60 244 30 361&#10;-9 35 -38 109 -65 164 -59 123 -133 210 -345 408 -282 264 -380 337 -554 413&#10;-42 18 -77 39 -79 47 -3 17 1318 3242 1353 3302 39 67 142 325 230 575 114&#10;323 263 717 288 762 24 44 75 82 137 103 25 8 288 59 585 115 297 55 550 102&#10;562 105 27 6 36 34 35 111 -1 73 -23 134 -49 133 -10 -1 -263 -47 -563 -104z&#10;m-3843 -1726 c36 -13 83 -58 83 -79 0 -15 -22 -18 -190 -24 -105 -4 -195 -4&#10;-201 -1 -39 25 152 112 248 114 17 1 44 -4 60 -10z m2257 -299 c-2 -24 -1066&#10;-2610 -1074 -2610 -4 0 -10 6 -13 14 -3 8 -7 589 -8 1291 -1 962 1 1279 10&#10;1284 6 4 242 13 524 20 281 7 514 15 517 17 10 11 45 -2 44 -16z m-1166 -620&#10;c1 -327 0 -601 -3 -609 -4 -11 -12 -8 -33 11 -51 48 -91 63 -177 63 -118 0&#10;-167 -27 -330 -185 -168 -162 -258 -240 -279 -240 -14 0 -16 31 -16 332 l0&#10;331 133 136 c226 232 370 463 433 695 7 27 19 53 26 58 7 4 65 7 128 6 l115&#10;-3 3 -595z m-1134 571 c12 -18 -148 -190 -274 -295 -134 -112 -308 -224 -324&#10;-209 -3 4 -6 108 -6 233 0 287 -12 268 180 273 317 7 419 6 424 -2z m-1764&#10;-31 c0 -6 -30 -73 -66 -148 -204 -422 -297 -870 -273 -1307 17 -318 86 -552&#10;223 -764 51 -79 194 -233 256 -276 l40 -28 0 -73 0 -74 -32 0 c-89 -1 -772 55&#10;-784 65 -12 8 -12 201 -4 1295 6 707 12 1290 15 1297 4 13 82 17 433 21 128 1&#10;192 -1 192 -8z m-709 -1290 c-2 -707 -7 -1292 -12 -1302 -10 -18 -5 -18 -320&#10;12 -103 10 -196 23 -208 29 -46 25 -75 121 -111 372 -35 247 -180 1651 -191&#10;1855 -12 218 -5 275 32 294 22 12 422 28 664 26 l150 -1 -4 -1285z m1799 960&#10;l0 -190 -26 -17 c-38 -25 -236 -103 -246 -97 -18 11 -5 50 65 186 81 160 174&#10;308 194 308 10 0 13 -41 13 -190z m900 -914 l0 -335 -92 -61 c-183 -121 -416&#10;-220 -598 -254 -104 -20 -136 -20 -144 0 -10 25 -7 490 3 517 7 17 27 30 71&#10;46 184 67 465 221 640 350 52 38 101 70 108 70 9 1 12 -72 12 -333z m-905&#10;-412 l0 -259 -70 1 c-90 1 -143 16 -191 55 -52 41 -120 134 -139 188 -21 62&#10;-20 136 3 159 10 10 72 33 138 51 65 18 146 41 179 51 33 10 65 17 70 16 6 -2&#10;10 -97 10 -262z m1818 -176 c4 -149 7 -416 7 -592 l-1 -321 -37 -90 c-45 -108&#10;-8 -102 -347 -52 -132 20 -287 41 -343 46 -57 6 -108 13 -113 17 -5 3 -9 93&#10;-9 200 0 173 2 196 18 208 9 8 64 49 122 92 282 207 522 463 637 680 24 46 48&#10;84 52 84 4 0 11 -122 14 -272z m-913 -818 c0 -155 -2 -170 -17 -170 -10 0&#10;-108 9 -218 20 -110 11 -285 26 -389 35 -174 14 -233 26 -195 39 8 3 69 15&#10;136 26 221 37 405 95 569 179 121 62 114 70 114 -129z m-1581 6 c50 -22 88&#10;-43 84 -47 -9 -9 -215 5 -232 16 -12 7 -15 77 -5 88 4 3 19 1 34 -6 15 -7 68&#10;-30 119 -51z" style="fill: rgb(0, 72, 107); stroke: rgb(235, 255, 243); stroke-width: 10;"/>
<path d="M3579 2027 c-79 -27 -198 -106 -250 -167 -161 -185 -158 -465 5 -647&#10;186 -207 492 -210 695 -6 132 132 183 273 161 438 -40 289 -338 475 -611 382z&#10;m223 -205 c132 -58 208 -205 179 -345 -28 -131 -114 -200 -251 -201 -122 -1&#10;-214 56 -272 167 -29 58 -36 168 -14 235 48 144 210 210 358 144z" style="fill: rgb(0, 72, 107); stroke: rgb(235, 255, 243); stroke-width: 10;"/>
<path d="M3645 1687 c-37 -17 -92 -79 -101 -112 -19 -76 42 -155 120 -155 81&#10;0 156 75 156 157 0 87 -95 146 -175 110z" style="fill: rgb(0, 72, 107); stroke: rgb(235, 255, 243); stroke-width: 10;"/>
<path d="M8209 2006 c-224 -62 -375 -298 -339 -529 39 -251 206 -427 437 -460&#10;217 -32 434 96 514 301 34 89 38 228 8 323 -53 168 -191 311 -347 359 -74 23&#10;-200 26 -273 6z m276 -220 c109 -51 155 -116 163 -231 5 -93 -23 -170 -85&#10;-232 -64 -64 -121 -88 -213 -87 -99 0 -163 28 -229 100 -69 75 -86 150 -56&#10;250 30 101 99 176 192 210 63 22 170 18 228 -10z" style="fill: rgb(0, 72, 107); stroke: rgb(235, 255, 243); stroke-width: 10;"/>
<path d="M8272 1646 c-60 -33 -78 -115 -42 -187 62 -121 232 -98 247 33 5 39&#10;1 55 -21 92 -15 25 -40 53 -56 61 -35 18 -97 19 -128 1z" style="fill: rgb(0, 72, 107); stroke: rgb(235, 255, 243); stroke-width: 10;"/>
</g></g><defs><style id="ee-google-fonts">@import url(https://fonts.googleapis.com/css?family=Baloo:400);</style></defs><path d="M 430.02685546875 762.8175659179688 C 430.02685546875 762.3175659179688 429.8868408203125 761.9542236328125 429.6068420410156 761.7276000976562 C 429.32684326171875 761.4942626953125 428.94683837890625 761.3775634765625 428.4668273925781 761.3775634765625 C 428.1468505859375 761.3775634765625 427.8301696777344 761.4176025390625 427.516845703125 761.49755859375 C 427.2035217285156 761.5775756835938 426.93682861328125 761.6975708007812 426.7168273925781 761.8576049804688 L 426.7168273925781 770.1875610351562 C 426.5568542480469 770.2342529296875 426.3034973144531 770.2808837890625 425.95684814453125 770.3275756835938 C 425.6168518066406 770.374267578125 425.2601623535156 770.3975830078125 424.8868408203125 770.3975830078125 C 424.5401611328125 770.3975830078125 424.2268371582031 770.374267578125 423.94683837890625 770.3275756835938 C 423.6668395996094 770.2808837890625 423.43017578125 770.1842651367188 423.2368469238281 770.03759765625 C 423.04351806640625 769.8975830078125 422.89349365234375 769.700927734375 422.7868347167969 769.4475708007812 C 422.68682861328125 769.200927734375 422.6368408203125 768.8775634765625 422.6368408203125 768.4776000976562 L 422.6368408203125 761.277587890625 C 422.6368408203125 760.84423828125 422.7268371582031 760.4942626953125 422.9068298339844 760.2276000976562 C 423.093505859375 759.9542236328125 423.3468322753906 759.7042236328125 423.6668395996094 759.4776000976562 C 424.2135009765625 759.0975952148438 424.8968505859375 758.78759765625 425.7168273925781 758.547607421875 C 426.54351806640625 758.3075561523438 427.4601745605469 758.1875610351562 428.4668273925781 758.1875610351562 C 430.27349853515625 758.1875610351562 431.6668395996094 758.5809326171875 432.6468505859375 759.3675537109375 C 433.62017822265625 760.160888671875 434.1068420410156 761.2609252929688 434.1068420410156 762.6676025390625 L 434.1068420410156 770.1875610351562 C 433.94683837890625 770.2342529296875 433.6935119628906 770.2808837890625 433.3468322753906 770.3275756835938 C 433.0068359375 770.374267578125 432.65350341796875 770.3975830078125 432.2868347167969 770.3975830078125 C 431.9335021972656 770.3975830078125 431.6168518066406 770.374267578125 431.33685302734375 770.3275756835938 C 431.0568542480469 770.2808837890625 430.8201599121094 770.1842651367188 430.6268310546875 770.03759765625 C 430.4335021972656 769.8975830078125 430.2868347167969 769.700927734375 430.18682861328125 769.4475708007812 C 430.0801696777344 769.200927734375 430.02685546875 768.8775634765625 430.02685546875 768.4776000976562 L 430.02685546875 762.8175659179688 Z" transform="matrix(9.522741317749023, 4.411205768585205, -4.411205768585205, 9.522741317749023, -228.93060302734375, -8442.50390625)" style="fill: rgb(0, 72, 107); white-space: pre; color: rgb(51, 51, 51);"/><path d="M 658.8291625976562 778.6618041992188 C 658.8291625976562 779.8751220703125 658.3724975585938 780.8284301757812 657.4591064453125 781.5217895507812 C 656.5457763671875 782.2084350585938 655.2024536132812 782.5517578125 653.4291381835938 782.5517578125 C 652.7557983398438 782.5517578125 652.1324462890625 782.5017700195312 651.5591430664062 782.4017944335938 C 650.9791259765625 782.3084716796875 650.4857788085938 782.1618041992188 650.0791625976562 781.9617919921875 C 649.6724853515625 781.7617797851562 649.3524780273438 781.5084228515625 649.119140625 781.2017822265625 C 648.8858032226562 780.9017944335938 648.7691650390625 780.5418090820312 648.7691650390625 780.1217651367188 C 648.7691650390625 779.7417602539062 648.84912109375 779.41845703125 649.0091552734375 779.1517944335938 C 649.1691284179688 778.8917846679688 649.3624877929688 778.6718139648438 649.589111328125 778.4917602539062 C 650.0491333007812 778.7517700195312 650.5791625976562 778.9818115234375 651.1791381835938 779.1817626953125 C 651.7791137695312 779.3817749023438 652.4724731445312 779.4818115234375 653.2591552734375 779.4818115234375 C 653.75244140625 779.4818115234375 654.1324462890625 779.408447265625 654.3991088867188 779.2617797851562 C 654.6658325195312 779.1151123046875 654.7991333007812 778.9218139648438 654.7991333007812 778.6817626953125 C 654.7991333007812 778.4617919921875 654.7024536132812 778.2884521484375 654.5091552734375 778.1618041992188 C 654.3157958984375 778.0284423828125 653.9957885742188 777.9218139648438 653.5491333007812 777.841796875 L 652.8291625976562 777.7017822265625 C 651.435791015625 777.428466796875 650.3991088867188 777.0017700195312 649.7191162109375 776.4218139648438 C 649.0391235351562 775.8351440429688 648.6991577148438 774.9984741210938 648.6991577148438 773.9118041992188 C 648.6991577148438 773.3184814453125 648.8258056640625 772.7817993164062 649.0791625976562 772.3017578125 C 649.339111328125 771.82177734375 649.6991577148438 771.4218139648438 650.1591186523438 771.101806640625 C 650.6257934570312 770.7817993164062 651.1824951171875 770.5350952148438 651.8291625976562 770.3617553710938 C 652.475830078125 770.1817626953125 653.1924438476562 770.091796875 653.9791259765625 770.091796875 C 654.5724487304688 770.091796875 655.129150390625 770.1351318359375 655.6491088867188 770.2218017578125 C 656.1691284179688 770.3151245117188 656.619140625 770.4484252929688 656.9991455078125 770.6217651367188 C 657.3858032226562 770.7951049804688 657.6924438476562 771.0217895507812 657.9191284179688 771.3017578125 C 658.13916015625 771.581787109375 658.2491455078125 771.9151000976562 658.2491455078125 772.3017578125 C 658.2491455078125 772.66845703125 658.1824951171875 772.985107421875 658.0491333007812 773.2517700195312 C 657.9091186523438 773.5117797851562 657.7357788085938 773.7318115234375 657.5291137695312 773.9118041992188 C 657.4024658203125 773.831787109375 657.2124633789062 773.7484741210938 656.9591064453125 773.6618041992188 C 656.6991577148438 773.5684814453125 656.4191284179688 773.4884643554688 656.119140625 773.4218139648438 C 655.8125 773.3484497070312 655.50244140625 773.2884521484375 655.1891479492188 773.2417602539062 C 654.8757934570312 773.1884765625 654.5924682617188 773.1618041992188 654.339111328125 773.1618041992188 C 653.8124389648438 773.1618041992188 653.4058227539062 773.2218017578125 653.119140625 773.341796875 C 652.8258056640625 773.4617919921875 652.6791381835938 773.6517944335938 652.6791381835938 773.9118041992188 C 652.6791381835938 774.0851440429688 652.7591552734375 774.2284545898438 652.9191284179688 774.341796875 C 653.0791625976562 774.4551391601562 653.3858032226562 774.5584716796875 653.839111328125 774.6517944335938 L 654.5791625976562 774.82177734375 C 656.1124877929688 775.1751098632812 657.205810546875 775.658447265625 657.859130859375 776.2717895507812 C 658.5057983398438 776.8917846679688 658.8291625976562 777.6884765625 658.8291625976562 778.6618041992188 ZM 667.086669921875 782.5217895507812 C 666.1400146484375 782.5217895507812 665.2633666992188 782.3917846679688 664.4566650390625 782.1317749023438 C 663.6500244140625 781.8651123046875 662.9467163085938 781.4684448242188 662.3466796875 780.9417724609375 C 661.7467041015625 780.4151000976562 661.2733764648438 779.7517700195312 660.9266967773438 778.9517822265625 C 660.5800170898438 778.1517944335938 660.4066772460938 777.215087890625 660.4066772460938 776.1417846679688 C 660.4066772460938 775.0884399414062 660.5800170898438 774.1817626953125 660.9266967773438 773.4218139648438 C 661.2733764648438 772.6618041992188 661.7266845703125 772.0350952148438 662.2866821289062 771.5418090820312 C 662.8466796875 771.0551147460938 663.4866943359375 770.6951293945312 664.2066650390625 770.4617919921875 C 664.9266967773438 770.235107421875 665.6600341796875 770.1217651367188 666.4066772460938 770.1217651367188 C 667.260009765625 770.1217651367188 668.0333251953125 770.2484741210938 668.7266845703125 770.5017700195312 C 669.4200439453125 770.755126953125 670.02001953125 771.1084594726562 670.5266723632812 771.561767578125 C 671.0333251953125 772.0084228515625 671.4266967773438 772.5418090820312 671.7066650390625 773.1618041992188 C 671.9866943359375 773.7884521484375 672.126708984375 774.4684448242188 672.126708984375 775.2017822265625 C 672.126708984375 775.7484741210938 671.9733276367188 776.1651000976562 671.6666870117188 776.4517822265625 C 671.3600463867188 776.7384643554688 670.9367065429688 776.9218139648438 670.3966674804688 777.0017700195312 L 664.4666748046875 777.8917846679688 C 664.6400146484375 778.41845703125 665 778.8151245117188 665.5466918945312 779.081787109375 C 666.0933837890625 779.3484497070312 666.7166748046875 779.4818115234375 667.4166870117188 779.4818115234375 C 668.07666015625 779.4818115234375 668.6967163085938 779.3951416015625 669.2766723632812 779.2218017578125 C 669.8633422851562 779.0551147460938 670.3400268554688 778.8617553710938 670.7066650390625 778.6417846679688 C 670.9600219726562 778.8017578125 671.1766967773438 779.025146484375 671.356689453125 779.311767578125 C 671.530029296875 779.5984497070312 671.61669921875 779.9017944335938 671.61669921875 780.2218017578125 C 671.61669921875 780.9417724609375 671.280029296875 781.4784545898438 670.606689453125 781.831787109375 C 670.1000366210938 782.1051025390625 669.5266723632812 782.2884521484375 668.8866577148438 782.3817749023438 C 668.2467041015625 782.47509765625 667.6466674804688 782.5217895507812 667.086669921875 782.5217895507812 M 666.4066772460938 773.091796875 C 666.0266723632812 773.091796875 665.6967163085938 773.1550903320312 665.4166870117188 773.2817993164062 C 665.1366577148438 773.4151000976562 664.9066772460938 773.581787109375 664.7266845703125 773.7817993164062 C 664.5533447265625 773.9818115234375 664.42333984375 774.2051391601562 664.336669921875 774.4517822265625 C 664.25 774.6984252929688 664.1967163085938 774.9484252929688 664.1766967773438 775.2017822265625 L 668.2866821289062 774.5317993164062 C 668.2333374023438 774.2117919921875 668.0567016601562 773.8917846679688 667.7567138671875 773.57177734375 C 667.4500122070312 773.2517700195312 667 773.091796875 666.4066772460938 773.091796875 ZM 679.0822143554688 779.5517578125 C 679.3555297851562 779.5517578125 679.6555786132812 779.5217895507812 679.9822387695312 779.4617919921875 C 680.3088989257812 779.408447265625 680.55224609375 779.3351440429688 680.7122192382812 779.2417602539062 L 680.7122192382812 777.32177734375 L 678.9822387695312 777.4617919921875 C 678.5355834960938 777.4951171875 678.1688842773438 777.591796875 677.8822021484375 777.7517700195312 C 677.5955810546875 777.9118041992188 677.4522094726562 778.1517944335938 677.4522094726562 778.4718017578125 C 677.4522094726562 778.7918090820312 677.5755615234375 779.0517578125 677.8222045898438 779.2517700195312 C 678.0689086914062 779.4517822265625 678.4888916015625 779.5517578125 679.0822143554688 779.5517578125 M 678.8922119140625 770.1217651367188 C 679.752197265625 770.1217651367188 680.5388793945312 770.2084350585938 681.252197265625 770.3817749023438 C 681.965576171875 770.5551147460938 682.5755615234375 770.82177734375 683.0822143554688 771.1817626953125 C 683.5822143554688 771.5418090820312 683.9688720703125 771.9984741210938 684.2422485351562 772.5517578125 C 684.5155639648438 773.1051025390625 684.6522216796875 773.7584228515625 684.6522216796875 774.5117797851562 L 684.6522216796875 779.8817749023438 C 684.6522216796875 780.3017578125 684.5355834960938 780.6417846679688 684.30224609375 780.9017944335938 C 684.0689086914062 781.16845703125 683.792236328125 781.3984375 683.4722290039062 781.591796875 C 682.4322509765625 782.2117919921875 680.9688720703125 782.5217895507812 679.0822143554688 782.5217895507812 C 678.2355346679688 782.5217895507812 677.4722290039062 782.4417724609375 676.792236328125 782.2817993164062 C 676.1122436523438 782.1217651367188 675.5288696289062 781.8817749023438 675.042236328125 781.561767578125 C 674.5488891601562 781.2417602539062 674.1722412109375 780.8351440429688 673.9122314453125 780.341796875 C 673.6455688476562 779.8484497070312 673.51220703125 779.2717895507812 673.51220703125 778.6117553710938 C 673.51220703125 777.5117797851562 673.8422241210938 776.6651000976562 674.502197265625 776.07177734375 C 675.1555786132812 775.4784545898438 676.1688842773438 775.1084594726562 677.542236328125 774.9617919921875 L 680.6921997070312 774.6317749023438 L 680.6921997070312 774.4617919921875 C 680.6921997070312 773.9951171875 680.4888916015625 773.6618041992188 680.0822143554688 773.4617919921875 C 679.6688842773438 773.2617797851562 679.0789184570312 773.1618041992188 678.3121948242188 773.1618041992188 C 677.70556640625 773.1618041992188 677.1155395507812 773.2284545898438 676.542236328125 773.3617553710938 C 675.9622192382812 773.4884643554688 675.4421997070312 773.6484375 674.9822387695312 773.841796875 C 674.7689208984375 773.6951293945312 674.5922241210938 773.47509765625 674.4522094726562 773.1817626953125 C 674.3055419921875 772.8817749023438 674.2322387695312 772.57177734375 674.2322387695312 772.2517700195312 C 674.2322387695312 771.8384399414062 674.3322143554688 771.5084228515625 674.5322265625 771.2617797851562 C 674.7322387695312 771.0084228515625 675.042236328125 770.7951049804688 675.4622192382812 770.6217651367188 C 675.9222412109375 770.4484252929688 676.4688720703125 770.32177734375 677.1022338867188 770.2417602539062 C 677.7355346679688 770.1618041992188 678.3322143554688 770.1217651367188 678.8922119140625 770.1217651367188 ZM 686.6377563476562 776.311767578125 C 686.6377563476562 775.2517700195312 686.7977905273438 774.3351440429688 687.1177368164062 773.561767578125 C 687.437744140625 772.7884521484375 687.8844604492188 772.1451416015625 688.457763671875 771.6317749023438 C 689.0244140625 771.1184692382812 689.687744140625 770.7384643554688 690.44775390625 770.4917602539062 C 691.207763671875 770.2451171875 692.0277709960938 770.1217651367188 692.9077758789062 770.1217651367188 C 693.227783203125 770.1217651367188 693.5377807617188 770.1484375 693.8377685546875 770.2017822265625 C 694.1444091796875 770.255126953125 694.3944091796875 770.32177734375 694.5877685546875 770.4017944335938 L 694.5877685546875 766.5217895507812 C 694.7477416992188 766.4684448242188 695.0044555664062 766.4151000976562 695.3577880859375 766.3617553710938 C 695.7044067382812 766.3084716796875 696.064453125 766.2817993164062 696.437744140625 766.2817993164062 C 696.784423828125 766.2817993164062 697.0977783203125 766.3051147460938 697.3777465820312 766.351806640625 C 697.6577758789062 766.3984375 697.8944091796875 766.4951171875 698.0877685546875 766.6417846679688 C 698.2811279296875 766.7817993164062 698.4244384765625 766.97509765625 698.5177612304688 767.2218017578125 C 698.6177368164062 767.47509765625 698.6677856445312 767.8017578125 698.6677856445312 768.2017822265625 L 698.6677856445312 779.57177734375 C 698.6677856445312 780.3251342773438 698.314453125 780.9251098632812 697.6077880859375 781.3717651367188 C 697.1477661132812 781.678466796875 696.5477905273438 781.9484252929688 695.8077392578125 782.1817626953125 C 695.074462890625 782.408447265625 694.227783203125 782.5217895507812 693.2677612304688 782.5217895507812 C 692.227783203125 782.5217895507812 691.29443359375 782.3784790039062 690.4677734375 782.091796875 C 689.6477661132812 781.8051147460938 688.9511108398438 781.388427734375 688.3777465820312 780.841796875 C 687.8110961914062 780.3017578125 687.381103515625 779.6517944335938 687.0877685546875 778.8917846679688 C 686.7877807617188 778.1317749023438 686.6377563476562 777.2717895507812 686.6377563476562 776.311767578125 M 693.457763671875 773.311767578125 C 692.5911254882812 773.311767578125 691.9277954101562 773.5584716796875 691.4677734375 774.0517578125 C 691.0010986328125 774.5517578125 690.7677612304688 775.3051147460938 690.7677612304688 776.311767578125 C 690.7677612304688 777.3051147460938 690.9844360351562 778.0517578125 691.4177856445312 778.5517578125 C 691.85107421875 779.0584716796875 692.4744262695312 779.311767578125 693.2877807617188 779.311767578125 C 693.574462890625 779.311767578125 693.8344116210938 779.2684326171875 694.0677490234375 779.1817626953125 C 694.3010864257812 779.0884399414062 694.4810791015625 778.9884643554688 694.6077880859375 778.8817749023438 L 694.6077880859375 773.601806640625 C 694.2877807617188 773.408447265625 693.9044189453125 773.311767578125 693.457763671875 773.311767578125 ZM 706.2012329101562 779.5517578125 C 706.4745483398438 779.5517578125 706.7745971679688 779.5217895507812 707.1012573242188 779.4617919921875 C 707.4279174804688 779.408447265625 707.6712646484375 779.3351440429688 707.8312377929688 779.2417602539062 L 707.8312377929688 777.32177734375 L 706.1012573242188 777.4617919921875 C 705.6546020507812 777.4951171875 705.2879028320312 777.591796875 705.001220703125 777.7517700195312 C 704.714599609375 777.9118041992188 704.5712280273438 778.1517944335938 704.5712280273438 778.4718017578125 C 704.5712280273438 778.7918090820312 704.694580078125 779.0517578125 704.9412231445312 779.2517700195312 C 705.1879272460938 779.4517822265625 705.60791015625 779.5517578125 706.2012329101562 779.5517578125 M 706.01123046875 770.1217651367188 C 706.8712158203125 770.1217651367188 707.6578979492188 770.2084350585938 708.3712158203125 770.3817749023438 C 709.0845947265625 770.5551147460938 709.694580078125 770.82177734375 710.2012329101562 771.1817626953125 C 710.7012329101562 771.5418090820312 711.087890625 771.9984741210938 711.3612670898438 772.5517578125 C 711.6345825195312 773.1051025390625 711.771240234375 773.7584228515625 711.771240234375 774.5117797851562 L 711.771240234375 779.8817749023438 C 711.771240234375 780.3017578125 711.6546020507812 780.6417846679688 711.4212646484375 780.9017944335938 C 711.1879272460938 781.16845703125 710.9112548828125 781.3984375 710.5912475585938 781.591796875 C 709.55126953125 782.2117919921875 708.087890625 782.5217895507812 706.2012329101562 782.5217895507812 C 705.3545532226562 782.5217895507812 704.5912475585938 782.4417724609375 703.9112548828125 782.2817993164062 C 703.2312622070312 782.1217651367188 702.6478881835938 781.8817749023438 702.1612548828125 781.561767578125 C 701.6679077148438 781.2417602539062 701.291259765625 780.8351440429688 701.03125 780.341796875 C 700.7645874023438 779.8484497070312 700.6312255859375 779.2717895507812 700.6312255859375 778.6117553710938 C 700.6312255859375 777.5117797851562 700.9612426757812 776.6651000976562 701.6212158203125 776.07177734375 C 702.2745971679688 775.4784545898438 703.2879028320312 775.1084594726562 704.6612548828125 774.9617919921875 L 707.8112182617188 774.6317749023438 L 707.8112182617188 774.4617919921875 C 707.8112182617188 773.9951171875 707.60791015625 773.6618041992188 707.2012329101562 773.4617919921875 C 706.7879028320312 773.2617797851562 706.1979370117188 773.1618041992188 705.4312133789062 773.1618041992188 C 704.8245849609375 773.1618041992188 704.2345581054688 773.2284545898438 703.6612548828125 773.3617553710938 C 703.0812377929688 773.4884643554688 702.5612182617188 773.6484375 702.1012573242188 773.841796875 C 701.887939453125 773.6951293945312 701.7112426757812 773.47509765625 701.5712280273438 773.1817626953125 C 701.424560546875 772.8817749023438 701.3512573242188 772.57177734375 701.3512573242188 772.2517700195312 C 701.3512573242188 771.8384399414062 701.4512329101562 771.5084228515625 701.6512451171875 771.2617797851562 C 701.8512573242188 771.0084228515625 702.1612548828125 770.7951049804688 702.5812377929688 770.6217651367188 C 703.041259765625 770.4484252929688 703.587890625 770.32177734375 704.2212524414062 770.2417602539062 C 704.8545532226562 770.1618041992188 705.4512329101562 770.1217651367188 706.01123046875 770.1217651367188 Z" transform="matrix(4.698310375213623, 0.03683854267001152, -0.03683854267001152, 4.698310375213623, -2468.186767578125, -2906.275390625)" style="fill: rgb(0, 72, 107); white-space: pre; color: rgb(255, 255, 255);"/></g></svg>