<?xml version="1.0" encoding="utf-8"?>
<svg id="master-artboard" viewBox="0 0 1400 980" version="1.1" xmlns="http://www.w3.org/2000/svg" x="0px" y="0px" style="enable-background:new 0 0 1400 980;" width="1400px" height="980px"><g transform="matrix(0.9999999999999999, 0, 0, 0.9999999999999999, 5.6588866379173055, -18.391124119775487)"><rect id="ee-background" x="0" y="0" width="1400" height="980" style="fill: rgb(0, 72, 107); fill-opacity: 0; pointer-events: none;"/><g transform="matrix(1.0208333730697632, 0, 0, 1.0208333730697632, 77.79018666690536, 72.1497829633945)"><g transform="translate(0.000000,960.000000) scale(0.100000,-0.100000)" fill="#e91e63" stroke="none">
<path d="M10300 8955 c-300 -57 -571 -111 -603 -119 -124 -35 -230 -108 -293&#10;-203 -41 -61 -170 -390 -324 -827 -89 -253 -142 -388 -167 -425 -10 -14 -27&#10;-48 -39 -76 -47 -114 -82 -120 -774 -140 -300 -8 -593 -15 -652 -15 l-107 0 6&#10;129 c11 244 -40 419 -172 591 -184 239 -459 347 -810 319 -520 -41 -999 -358&#10;-1465 -969 l-89 -117 -258 -7 c-142 -3 -431 -8 -643 -11 -531 -8 -804 -21&#10;-862 -40 -96 -33 -164 -120 -188 -242 -20 -102 3 -417 95 -1289 85 -812 110&#10;-1003 145 -1146 36 -145 102 -237 205 -284 72 -33 207 -46 1570 -149 2066&#10;-156 2503 -208 2810 -338 55 -24 132 -63 170 -89 153 -99 554 -485 612 -588&#10;73 -129 91 -251 51 -338 -31 -65 -101 -133 -178 -170 -137 -67 75 -62 -2727&#10;-62 l-2542 0 -12 -22 c-17 -32 -24 -170 -10 -196 l12 -22 2573 0 c2547 0 2574&#10;0 2652 20 100 26 202 74 281 134 58 44 137 136 168 196 47 90 60 244 30 361&#10;-9 35 -38 109 -65 164 -59 123 -133 210 -345 408 -282 264 -380 337 -554 413&#10;-42 18 -77 39 -79 47 -3 17 1318 3242 1353 3302 39 67 142 325 230 575 114&#10;323 263 717 288 762 24 44 75 82 137 103 25 8 288 59 585 115 297 55 550 102&#10;562 105 27 6 36 34 35 111 -1 73 -23 134 -49 133 -10 -1 -263 -47 -563 -104z&#10;m-3843 -1726 c36 -13 83 -58 83 -79 0 -15 -22 -18 -190 -24 -105 -4 -195 -4&#10;-201 -1 -39 25 152 112 248 114 17 1 44 -4 60 -10z m2257 -299 c-2 -24 -1066&#10;-2610 -1074 -2610 -4 0 -10 6 -13 14 -3 8 -7 589 -8 1291 -1 962 1 1279 10&#10;1284 6 4 242 13 524 20 281 7 514 15 517 17 10 11 45 -2 44 -16z m-1166 -620&#10;c1 -327 0 -601 -3 -609 -4 -11 -12 -8 -33 11 -51 48 -91 63 -177 63 -118 0&#10;-167 -27 -330 -185 -168 -162 -258 -240 -279 -240 -14 0 -16 31 -16 332 l0&#10;331 133 136 c226 232 370 463 433 695 7 27 19 53 26 58 7 4 65 7 128 6 l115&#10;-3 3 -595z m-1134 571 c12 -18 -148 -190 -274 -295 -134 -112 -308 -224 -324&#10;-209 -3 4 -6 108 -6 233 0 287 -12 268 180 273 317 7 419 6 424 -2z m-1764&#10;-31 c0 -6 -30 -73 -66 -148 -204 -422 -297 -870 -273 -1307 17 -318 86 -552&#10;223 -764 51 -79 194 -233 256 -276 l40 -28 0 -73 0 -74 -32 0 c-89 -1 -772 55&#10;-784 65 -12 8 -12 201 -4 1295 6 707 12 1290 15 1297 4 13 82 17 433 21 128 1&#10;192 -1 192 -8z m-709 -1290 c-2 -707 -7 -1292 -12 -1302 -10 -18 -5 -18 -320&#10;12 -103 10 -196 23 -208 29 -46 25 -75 121 -111 372 -35 247 -180 1651 -191&#10;1855 -12 218 -5 275 32 294 22 12 422 28 664 26 l150 -1 -4 -1285z m1799 960&#10;l0 -190 -26 -17 c-38 -25 -236 -103 -246 -97 -18 11 -5 50 65 186 81 160 174&#10;308 194 308 10 0 13 -41 13 -190z m900 -914 l0 -335 -92 -61 c-183 -121 -416&#10;-220 -598 -254 -104 -20 -136 -20 -144 0 -10 25 -7 490 3 517 7 17 27 30 71&#10;46 184 67 465 221 640 350 52 38 101 70 108 70 9 1 12 -72 12 -333z m-905&#10;-412 l0 -259 -70 1 c-90 1 -143 16 -191 55 -52 41 -120 134 -139 188 -21 62&#10;-20 136 3 159 10 10 72 33 138 51 65 18 146 41 179 51 33 10 65 17 70 16 6 -2&#10;10 -97 10 -262z m1818 -176 c4 -149 7 -416 7 -592 l-1 -321 -37 -90 c-45 -108&#10;-8 -102 -347 -52 -132 20 -287 41 -343 46 -57 6 -108 13 -113 17 -5 3 -9 93&#10;-9 200 0 173 2 196 18 208 9 8 64 49 122 92 282 207 522 463 637 680 24 46 48&#10;84 52 84 4 0 11 -122 14 -272z m-913 -818 c0 -155 -2 -170 -17 -170 -10 0&#10;-108 9 -218 20 -110 11 -285 26 -389 35 -174 14 -233 26 -195 39 8 3 69 15&#10;136 26 221 37 405 95 569 179 121 62 114 70 114 -129z m-1581 6 c50 -22 88&#10;-43 84 -47 -9 -9 -215 5 -232 16 -12 7 -15 77 -5 88 4 3 19 1 34 -6 15 -7 68&#10;-30 119 -51z" style="fill: rgb(255, 255, 255); stroke: rgb(235, 255, 243); stroke-width: 10;"/>
<path d="M3579 2027 c-79 -27 -198 -106 -250 -167 -161 -185 -158 -465 5 -647&#10;186 -207 492 -210 695 -6 132 132 183 273 161 438 -40 289 -338 475 -611 382z&#10;m223 -205 c132 -58 208 -205 179 -345 -28 -131 -114 -200 -251 -201 -122 -1&#10;-214 56 -272 167 -29 58 -36 168 -14 235 48 144 210 210 358 144z" style="fill: rgb(255, 255, 255); stroke: rgb(235, 255, 243); stroke-width: 10;"/>
<path d="M3645 1687 c-37 -17 -92 -79 -101 -112 -19 -76 42 -155 120 -155 81&#10;0 156 75 156 157 0 87 -95 146 -175 110z" style="fill: rgb(255, 255, 255); stroke: rgb(235, 255, 243); stroke-width: 10;"/>
<path d="M8209 2006 c-224 -62 -375 -298 -339 -529 39 -251 206 -427 437 -460&#10;217 -32 434 96 514 301 34 89 38 228 8 323 -53 168 -191 311 -347 359 -74 23&#10;-200 26 -273 6z m276 -220 c109 -51 155 -116 163 -231 5 -93 -23 -170 -85&#10;-232 -64 -64 -121 -88 -213 -87 -99 0 -163 28 -229 100 -69 75 -86 150 -56&#10;250 30 101 99 176 192 210 63 22 170 18 228 -10z" style="fill: rgb(255, 255, 255); stroke: rgb(235, 255, 243); stroke-width: 10;"/>
<path d="M8272 1646 c-60 -33 -78 -115 -42 -187 62 -121 232 -98 247 33 5 39&#10;1 55 -21 92 -15 25 -40 53 -56 61 -35 18 -97 19 -128 1z" style="fill: rgb(255, 255, 255); stroke: rgb(235, 255, 243); stroke-width: 10;"/>
</g></g><defs><style id="ee-google-fonts">@import url(https://fonts.googleapis.com/css?family=Baloo:400);</style></defs><path d="M 430.02685546875 762.8175659179688 C 430.02685546875 762.3175659179688 429.8868408203125 761.9542236328125 429.6068420410156 761.7276000976562 C 429.32684326171875 761.4942626953125 428.94683837890625 761.3775634765625 428.4668273925781 761.3775634765625 C 428.1468505859375 761.3775634765625 427.8301696777344 761.4176025390625 427.516845703125 761.49755859375 C 427.2035217285156 761.5775756835938 426.93682861328125 761.6975708007812 426.7168273925781 761.8576049804688 L 426.7168273925781 770.1875610351562 C 426.5568542480469 770.2342529296875 426.3034973144531 770.2808837890625 425.95684814453125 770.3275756835938 C 425.6168518066406 770.374267578125 425.2601623535156 770.3975830078125 424.8868408203125 770.3975830078125 C 424.5401611328125 770.3975830078125 424.2268371582031 770.374267578125 423.94683837890625 770.3275756835938 C 423.6668395996094 770.2808837890625 423.43017578125 770.1842651367188 423.2368469238281 770.03759765625 C 423.04351806640625 769.8975830078125 422.89349365234375 769.700927734375 422.7868347167969 769.4475708007812 C 422.68682861328125 769.200927734375 422.6368408203125 768.8775634765625 422.6368408203125 768.4776000976562 L 422.6368408203125 761.277587890625 C 422.6368408203125 760.84423828125 422.7268371582031 760.4942626953125 422.9068298339844 760.2276000976562 C 423.093505859375 759.9542236328125 423.3468322753906 759.7042236328125 423.6668395996094 759.4776000976562 C 424.2135009765625 759.0975952148438 424.8968505859375 758.78759765625 425.7168273925781 758.547607421875 C 426.54351806640625 758.3075561523438 427.4601745605469 758.1875610351562 428.4668273925781 758.1875610351562 C 430.27349853515625 758.1875610351562 431.6668395996094 758.5809326171875 432.6468505859375 759.3675537109375 C 433.62017822265625 760.160888671875 434.1068420410156 761.2609252929688 434.1068420410156 762.6676025390625 L 434.1068420410156 770.1875610351562 C 433.94683837890625 770.2342529296875 433.6935119628906 770.2808837890625 433.3468322753906 770.3275756835938 C 433.0068359375 770.374267578125 432.65350341796875 770.3975830078125 432.2868347167969 770.3975830078125 C 431.9335021972656 770.3975830078125 431.6168518066406 770.374267578125 431.33685302734375 770.3275756835938 C 431.0568542480469 770.2808837890625 430.8201599121094 770.1842651367188 430.6268310546875 770.03759765625 C 430.4335021972656 769.8975830078125 430.2868347167969 769.700927734375 430.18682861328125 769.4475708007812 C 430.0801696777344 769.200927734375 430.02685546875 768.8775634765625 430.02685546875 768.4776000976562 L 430.02685546875 762.8175659179688 Z" transform="matrix(9.522741317749023, 4.411205768585205, -4.411205768585205, 9.522741317749023, -228.93060302734375, -8442.50390625)" style="fill: rgb(255, 255, 255); white-space: pre; color: rgb(51, 51, 51);"/><path d="M 658.8291625976562 778.6618041992188 C 658.8291625976562 779.8751220703125 658.3724975585938 780.8284301757812 657.4591064453125 781.5217895507812 C 656.5457763671875 782.2084350585938 655.2024536132812 782.5517578125 653.4291381835938 782.5517578125 C 652.7557983398438 782.5517578125 652.1324462890625 782.5017700195312 651.5591430664062 782.4017944335938 C 650.9791259765625 782.3084716796875 650.4857788085938 782.1618041992188 650.0791625976562 781.9617919921875 C 649.6724853515625 781.7617797851562 649.3524780273438 781.5084228515625 649.119140625 781.2017822265625 C 648.8858032226562 780.9017944335938 648.7691650390625 780.5418090820312 648.7691650390625 780.1217651367188 C 648.7691650390625 779.7417602539062 648.84912109375 779.41845703125 649.0091552734375 779.1517944335938 C 649.1691284179688 778.8917846679688 649.3624877929688 778.6718139648438 649.589111328125 778.4917602539062 C 650.0491333007812 778.7517700195312 650.5791625976562 778.9818115234375 651.1791381835938 779.1817626953125 C 651.7791137695312 779.3817749023438 652.4724731445312 779.4818115234375 653.2591552734375 779.4818115234375 C 653.75244140625 779.4818115234375 654.1324462890625 779.408447265625 654.3991088867188 779.2617797851562 C 654.6658325195312 779.1151123046875 654.7991333007812 778.9218139648438 654.7991333007812 778.6817626953125 C 654.7991333007812 778.4617919921875 654.7024536132812 778.2884521484375 654.5091552734375 778.1618041992188 C 654.3157958984375 778.0284423828125 653.9957885742188 777.9218139648438 653.5491333007812 777.841796875 L 652.8291625976562 777.7017822265625 C 651.435791015625 777.428466796875 650.3991088867188 777.0017700195312 649.7191162109375 776.4218139648438 C 649.0391235351562 775.8351440429688 648.6991577148438 774.9984741210938 648.6991577148438 773.9118041992188 C 648.6991577148438 773.3184814453125 648.8258056640625 772.7817993164062 649.0791625976562 772.3017578125 C 649.339111328125 771.82177734375 649.6991577148438 771.4218139648438 650.1591186523438 771.101806640625 C 650.6257934570312 770.7817993164062 651.1824951171875 770.5350952148438 651.8291625976562 770.3617553710938 C 652.475830078125 770.1817626953125 653.1924438476562 770.091796875 653.9791259765625 770.091796875 C 654.5724487304688 770.091796875 655.129150390625 770.1351318359375 655.6491088867188 770.2218017578125 C 656.1691284179688 770.3151245117188 656.619140625 770.4484252929688 656.9991455078125 770.6217651367188 C 657.3858032226562 770.7951049804688 657.6924438476562 771.0217895507812 657.9191284179688 771.3017578125 C 658.13916015625 771.581787109375 658.2491455078125 771.9151000976562 658.2491455078125 772.3017578125 C 658.2491455078125 772.66845703125 658.1824951171875 772.985107421875 658.0491333007812 773.2517700195312 C 657.9091186523438 773.5117797851562 657.7357788085938 773.7318115234375 657.5291137695312 773.9118041992188 C 657.4024658203125 773.831787109375 657.2124633789062 773.7484741210938 656.9591064453125 773.6618041992188 C 656.6991577148438 773.5684814453125 656.4191284179688 773.4884643554688 656.119140625 773.4218139648438 C 655.8125 773.3484497070312 655.50244140625 773.2884521484375 655.1891479492188 773.2417602539062 C 654.8757934570312 773.1884765625 654.5924682617188 773.1618041992188 654.339111328125 773.1618041992188 C 653.8124389648438 773.1618041992188 653.4058227539062 773.2218017578125 653.119140625 773.341796875 C 652.8258056640625 773.4617919921875 652.6791381835938 773.6517944335938 652.6791381835938 773.9118041992188 C 652.6791381835938 774.0851440429688 652.7591552734375 774.2284545898438 652.9191284179688 774.341796875 C 653.0791625976562 774.4551391601562 653.3858032226562 774.5584716796875 653.839111328125 774.6517944335938 L 654.5791625976562 774.82177734375 C 656.1124877929688 775.1751098632812 657.205810546875 775.658447265625 657.859130859375 776.2717895507812 C 658.5057983398438 776.8917846679688 658.8291625976562 777.6884765625 658.8291625976562 778.6618041992188 ZM 667.0867919921875 782.5217895507812 C 666.14013671875 782.5217895507812 665.2634887695312 782.3917846679688 664.456787109375 782.1317749023438 C 663.650146484375 781.8651123046875 662.9468383789062 781.4684448242188 662.3468017578125 780.9417724609375 C 661.746826171875 780.4151000976562 661.2734985351562 779.7517700195312 660.9268188476562 778.9517822265625 C 660.5801391601562 778.1517944335938 660.4067993164062 777.215087890625 660.4067993164062 776.1417846679688 C 660.4067993164062 775.0884399414062 660.5801391601562 774.1817626953125 660.9268188476562 773.4218139648438 C 661.2734985351562 772.6618041992188 661.726806640625 772.0350952148438 662.2868041992188 771.5418090820312 C 662.8468017578125 771.0551147460938 663.48681640625 770.6951293945312 664.206787109375 770.4617919921875 C 664.9268188476562 770.235107421875 665.66015625 770.1217651367188 666.4067993164062 770.1217651367188 C 667.2601318359375 770.1217651367188 668.033447265625 770.2484741210938 668.726806640625 770.5017700195312 C 669.420166015625 770.755126953125 670.0201416015625 771.1084594726562 670.5267944335938 771.561767578125 C 671.033447265625 772.0084228515625 671.4268188476562 772.5418090820312 671.706787109375 773.1618041992188 C 671.98681640625 773.7884521484375 672.1268310546875 774.4684448242188 672.1268310546875 775.2017822265625 C 672.1268310546875 775.7484741210938 671.9734497070312 776.1651000976562 671.6668090820312 776.4517822265625 C 671.3601684570312 776.7384643554688 670.9368286132812 776.9218139648438 670.3967895507812 777.0017700195312 L 664.466796875 777.8917846679688 C 664.64013671875 778.41845703125 665.0001220703125 778.8151245117188 665.5468139648438 779.081787109375 C 666.093505859375 779.3484497070312 666.716796875 779.4818115234375 667.4168090820312 779.4818115234375 C 668.0767822265625 779.4818115234375 668.6968383789062 779.3951416015625 669.2767944335938 779.2218017578125 C 669.8634643554688 779.0551147460938 670.3401489257812 778.8617553710938 670.706787109375 778.6417846679688 C 670.9601440429688 778.8017578125 671.1768188476562 779.025146484375 671.3568115234375 779.311767578125 C 671.5301513671875 779.5984497070312 671.6168212890625 779.9017944335938 671.6168212890625 780.2218017578125 C 671.6168212890625 780.9417724609375 671.2801513671875 781.4784545898438 670.6068115234375 781.831787109375 C 670.1001586914062 782.1051025390625 669.5267944335938 782.2884521484375 668.8867797851562 782.3817749023438 C 668.246826171875 782.47509765625 667.6467895507812 782.5217895507812 667.0867919921875 782.5217895507812 M 666.4067993164062 773.091796875 C 666.0267944335938 773.091796875 665.6968383789062 773.1550903320312 665.4168090820312 773.2817993164062 C 665.1367797851562 773.4151000976562 664.9067993164062 773.581787109375 664.726806640625 773.7817993164062 C 664.553466796875 773.9818115234375 664.4234619140625 774.2051391601562 664.3367919921875 774.4517822265625 C 664.2501220703125 774.6984252929688 664.1968383789062 774.9484252929688 664.1768188476562 775.2017822265625 L 668.2868041992188 774.5317993164062 C 668.2334594726562 774.2117919921875 668.0568237304688 773.8917846679688 667.7568359375 773.57177734375 C 667.4501342773438 773.2517700195312 667.0001220703125 773.091796875 666.4067993164062 773.091796875 ZM 679.0823974609375 779.5517578125 C 679.355712890625 779.5517578125 679.65576171875 779.5217895507812 679.982421875 779.4617919921875 C 680.30908203125 779.408447265625 680.5524291992188 779.3351440429688 680.71240234375 779.2417602539062 L 680.71240234375 777.32177734375 L 678.982421875 777.4617919921875 C 678.5357666015625 777.4951171875 678.1690673828125 777.591796875 677.8823852539062 777.7517700195312 C 677.5957641601562 777.9118041992188 677.452392578125 778.1517944335938 677.452392578125 778.4718017578125 C 677.452392578125 778.7918090820312 677.5757446289062 779.0517578125 677.8223876953125 779.2517700195312 C 678.069091796875 779.4517822265625 678.4890747070312 779.5517578125 679.0823974609375 779.5517578125 M 678.8923950195312 770.1217651367188 C 679.7523803710938 770.1217651367188 680.5390625 770.2084350585938 681.2523803710938 770.3817749023438 C 681.9657592773438 770.5551147460938 682.5757446289062 770.82177734375 683.0823974609375 771.1817626953125 C 683.5823974609375 771.5418090820312 683.9690551757812 771.9984741210938 684.242431640625 772.5517578125 C 684.5157470703125 773.1051025390625 684.6524047851562 773.7584228515625 684.6524047851562 774.5117797851562 L 684.6524047851562 779.8817749023438 C 684.6524047851562 780.3017578125 684.5357666015625 780.6417846679688 684.3024291992188 780.9017944335938 C 684.069091796875 781.16845703125 683.7924194335938 781.3984375 683.472412109375 781.591796875 C 682.4324340820312 782.2117919921875 680.9690551757812 782.5217895507812 679.0823974609375 782.5217895507812 C 678.2357177734375 782.5217895507812 677.472412109375 782.4417724609375 676.7924194335938 782.2817993164062 C 676.1124267578125 782.1217651367188 675.529052734375 781.8817749023438 675.0424194335938 781.561767578125 C 674.549072265625 781.2417602539062 674.1724243164062 780.8351440429688 673.9124145507812 780.341796875 C 673.645751953125 779.8484497070312 673.5123901367188 779.2717895507812 673.5123901367188 778.6117553710938 C 673.5123901367188 777.5117797851562 673.8424072265625 776.6651000976562 674.5023803710938 776.07177734375 C 675.15576171875 775.4784545898438 676.1690673828125 775.1084594726562 677.5424194335938 774.9617919921875 L 680.6923828125 774.6317749023438 L 680.6923828125 774.4617919921875 C 680.6923828125 773.9951171875 680.4890747070312 773.6618041992188 680.0823974609375 773.4617919921875 C 679.6690673828125 773.2617797851562 679.0791015625 773.1618041992188 678.3123779296875 773.1618041992188 C 677.7057495117188 773.1618041992188 677.11572265625 773.2284545898438 676.5424194335938 773.3617553710938 C 675.96240234375 773.4884643554688 675.4423828125 773.6484375 674.982421875 773.841796875 C 674.7691040039062 773.6951293945312 674.5924072265625 773.47509765625 674.452392578125 773.1817626953125 C 674.3057250976562 772.8817749023438 674.232421875 772.57177734375 674.232421875 772.2517700195312 C 674.232421875 771.8384399414062 674.3323974609375 771.5084228515625 674.5324096679688 771.2617797851562 C 674.732421875 771.0084228515625 675.0424194335938 770.7951049804688 675.46240234375 770.6217651367188 C 675.9224243164062 770.4484252929688 676.4690551757812 770.32177734375 677.1024169921875 770.2417602539062 C 677.7357177734375 770.1618041992188 678.3323974609375 770.1217651367188 678.8923950195312 770.1217651367188 ZM 686.6380004882812 776.311767578125 C 686.6380004882812 775.2517700195312 686.7980346679688 774.3351440429688 687.1179809570312 773.561767578125 C 687.43798828125 772.7884521484375 687.8847045898438 772.1451416015625 688.4580078125 771.6317749023438 C 689.024658203125 771.1184692382812 689.68798828125 770.7384643554688 690.447998046875 770.4917602539062 C 691.2080078125 770.2451171875 692.0280151367188 770.1217651367188 692.9080200195312 770.1217651367188 C 693.22802734375 770.1217651367188 693.5380249023438 770.1484375 693.8380126953125 770.2017822265625 C 694.1446533203125 770.255126953125 694.3946533203125 770.32177734375 694.5880126953125 770.4017944335938 L 694.5880126953125 766.5217895507812 C 694.7479858398438 766.4684448242188 695.0046997070312 766.4151000976562 695.3580322265625 766.3617553710938 C 695.7046508789062 766.3084716796875 696.064697265625 766.2817993164062 696.43798828125 766.2817993164062 C 696.78466796875 766.2817993164062 697.0980224609375 766.3051147460938 697.3779907226562 766.351806640625 C 697.6580200195312 766.3984375 697.8946533203125 766.4951171875 698.0880126953125 766.6417846679688 C 698.2813720703125 766.7817993164062 698.4246826171875 766.97509765625 698.5180053710938 767.2218017578125 C 698.6179809570312 767.47509765625 698.6680297851562 767.8017578125 698.6680297851562 768.2017822265625 L 698.6680297851562 779.57177734375 C 698.6680297851562 780.3251342773438 698.314697265625 780.9251098632812 697.6080322265625 781.3717651367188 C 697.1480102539062 781.678466796875 696.5480346679688 781.9484252929688 695.8079833984375 782.1817626953125 C 695.07470703125 782.408447265625 694.22802734375 782.5217895507812 693.2680053710938 782.5217895507812 C 692.22802734375 782.5217895507812 691.294677734375 782.3784790039062 690.468017578125 782.091796875 C 689.6480102539062 781.8051147460938 688.9513549804688 781.388427734375 688.3779907226562 780.841796875 C 687.8113403320312 780.3017578125 687.38134765625 779.6517944335938 687.0880126953125 778.8917846679688 C 686.7880249023438 778.1317749023438 686.6380004882812 777.2717895507812 686.6380004882812 776.311767578125 M 693.4580078125 773.311767578125 C 692.5913696289062 773.311767578125 691.9280395507812 773.5584716796875 691.468017578125 774.0517578125 C 691.0013427734375 774.5517578125 690.7680053710938 775.3051147460938 690.7680053710938 776.311767578125 C 690.7680053710938 777.3051147460938 690.9846801757812 778.0517578125 691.4180297851562 778.5517578125 C 691.851318359375 779.0584716796875 692.4746704101562 779.311767578125 693.2880249023438 779.311767578125 C 693.57470703125 779.311767578125 693.8346557617188 779.2684326171875 694.0679931640625 779.1817626953125 C 694.3013305664062 779.0884399414062 694.4813232421875 778.9884643554688 694.6080322265625 778.8817749023438 L 694.6080322265625 773.601806640625 C 694.2880249023438 773.408447265625 693.9046630859375 773.311767578125 693.4580078125 773.311767578125 ZM 706.2015991210938 779.5517578125 C 706.4749145507812 779.5517578125 706.7749633789062 779.5217895507812 707.1016235351562 779.4617919921875 C 707.4282836914062 779.408447265625 707.671630859375 779.3351440429688 707.8316040039062 779.2417602539062 L 707.8316040039062 777.32177734375 L 706.1016235351562 777.4617919921875 C 705.6549682617188 777.4951171875 705.2882690429688 777.591796875 705.0015869140625 777.7517700195312 C 704.7149658203125 777.9118041992188 704.5715942382812 778.1517944335938 704.5715942382812 778.4718017578125 C 704.5715942382812 778.7918090820312 704.6949462890625 779.0517578125 704.9415893554688 779.2517700195312 C 705.1882934570312 779.4517822265625 705.6082763671875 779.5517578125 706.2015991210938 779.5517578125 M 706.0115966796875 770.1217651367188 C 706.87158203125 770.1217651367188 707.6582641601562 770.2084350585938 708.37158203125 770.3817749023438 C 709.0849609375 770.5551147460938 709.6949462890625 770.82177734375 710.2015991210938 771.1817626953125 C 710.7015991210938 771.5418090820312 711.0882568359375 771.9984741210938 711.3616333007812 772.5517578125 C 711.6349487304688 773.1051025390625 711.7716064453125 773.7584228515625 711.7716064453125 774.5117797851562 L 711.7716064453125 779.8817749023438 C 711.7716064453125 780.3017578125 711.6549682617188 780.6417846679688 711.421630859375 780.9017944335938 C 711.1882934570312 781.16845703125 710.91162109375 781.3984375 710.5916137695312 781.591796875 C 709.5516357421875 782.2117919921875 708.0882568359375 782.5217895507812 706.2015991210938 782.5217895507812 C 705.3549194335938 782.5217895507812 704.5916137695312 782.4417724609375 703.91162109375 782.2817993164062 C 703.2316284179688 782.1217651367188 702.6482543945312 781.8817749023438 702.16162109375 781.561767578125 C 701.6682739257812 781.2417602539062 701.2916259765625 780.8351440429688 701.0316162109375 780.341796875 C 700.7649536132812 779.8484497070312 700.631591796875 779.2717895507812 700.631591796875 778.6117553710938 C 700.631591796875 777.5117797851562 700.9616088867188 776.6651000976562 701.62158203125 776.07177734375 C 702.2749633789062 775.4784545898438 703.2882690429688 775.1084594726562 704.66162109375 774.9617919921875 L 707.8115844726562 774.6317749023438 L 707.8115844726562 774.4617919921875 C 707.8115844726562 773.9951171875 707.6082763671875 773.6618041992188 707.2015991210938 773.4617919921875 C 706.7882690429688 773.2617797851562 706.1983032226562 773.1618041992188 705.4315795898438 773.1618041992188 C 704.824951171875 773.1618041992188 704.2349243164062 773.2284545898438 703.66162109375 773.3617553710938 C 703.0816040039062 773.4884643554688 702.5615844726562 773.6484375 702.1016235351562 773.841796875 C 701.8883056640625 773.6951293945312 701.7116088867188 773.47509765625 701.5715942382812 773.1817626953125 C 701.4249267578125 772.8817749023438 701.3516235351562 772.57177734375 701.3516235351562 772.2517700195312 C 701.3516235351562 771.8384399414062 701.4515991210938 771.5084228515625 701.651611328125 771.2617797851562 C 701.8516235351562 771.0084228515625 702.16162109375 770.7951049804688 702.5816040039062 770.6217651367188 C 703.0416259765625 770.4484252929688 703.5882568359375 770.32177734375 704.2216186523438 770.2417602539062 C 704.8549194335938 770.1618041992188 705.4515991210938 770.1217651367188 706.0115966796875 770.1217651367188 Z" transform="matrix(4.698310375213623, 0.03683854267001152, -0.03683854267001152, 4.698310375213623, -2468.186767578125, -2906.275390625)" style="fill: rgb(255, 255, 255); white-space: pre; color: rgb(51, 51, 51);"/></g></svg>